<svg width="53px" height="44px" viewBox="0 0 53 44" fill="none" xmlns="http://www.w3.org/2000/svg"><path fill-rule="evenodd" clip-rule="evenodd" d="M52.673 5.92722C51.1897 8.12718 49.3964 10.0016 47.2932 11.5506C47.3153 11.8648 47.3264 12.3363 47.3264 12.9648C47.3264 15.8831 46.9058 18.7958 46.0645 21.7029C45.2232 24.61 43.9446 27.3992 42.2288 30.0706C40.513 32.742 38.4707 35.1046 36.1018 37.1587C33.7329 39.2127 30.877 40.8515 27.5339 42.0749C24.1909 43.2984 20.6155 43.9101 16.8075 43.9101C10.8077 43.9101 5.31728 42.2826 0.335938 39.0275C1.11081 39.1173 1.97423 39.1622 2.92622 39.1622C7.90757 39.1622 12.3464 37.6133 16.243 34.5154C13.9183 34.4705 11.8373 33.7465 9.9997 32.3435C8.16214 30.9405 6.90021 29.1502 6.2139 26.9727C6.94449 27.0849 7.61973 27.1411 8.23963 27.1411C9.19162 27.1411 10.1325 27.0176 11.0624 26.7707C8.58278 26.2543 6.52939 25.0028 4.90215 23.0161C3.27491 21.0294 2.4613 18.7229 2.4613 16.0964V15.9617C3.96677 16.8147 5.58292 17.2749 7.30979 17.3423C5.84859 16.3545 4.6863 15.0638 3.82286 13.4699C2.95943 11.8761 2.52772 10.1475 2.52772 8.28431C2.52772 6.30883 3.01478 4.4793 3.98891 2.79565C6.66776 6.1405 9.92773 8.81745 13.7689 10.8266C17.6101 12.8358 21.7224 13.9526 26.106 14.177C25.9289 13.324 25.8403 12.4934 25.8403 11.6853C25.8403 8.67715 26.8864 6.11243 28.9785 3.99104C31.0707 1.86964 33.6001 0.80896 36.5667 0.80896C39.6662 0.80896 42.2786 1.95382 44.404 4.24358C46.8172 3.77216 49.0865 2.89668 51.2118 1.61711C50.3927 4.1987 48.8208 6.19659 46.4962 7.61086C48.5551 7.38637 50.6141 6.82516 52.673 5.92722Z" fill="#1DA1F2"/></svg>